<svg xmlns="http://www.w3.org/2000/svg" viewBox="0 0 1080 1920" role="img" aria-label="Ilustração editorial de vacinação e proteção contra sarampo"><defs><linearGradient id="bg" x1="0" y1="0" x2="1" y2="1"><stop stop-color="#071827"/><stop offset="1" stop-color="#17364d"/></linearGradient><radialGradient id="glow" cx="50%" cy="45%" r="55%"><stop stop-color="#8bd9e8" stop-opacity=".5"/><stop offset="1" stop-color="#8bd9e8" stop-opacity="0"/></radialGradient></defs><rect width="1080" height="1920" fill="url(#bg)"/><rect width="1080" height="1920" fill="url(#glow)"/><g transform="translate(540 900)"><circle r="330" fill="#eef8fb" opacity=".95"/><path d="M-95-250h190v155h155v190H95v155H-95V95h-155V-95h155z" fill="#1b718e"/><g fill="#d5636d" opacity=".85"><circle cx="-300" cy="-310" r="30"/><circle cx="285" cy="-230" r="24"/><circle cx="330" cy="180" r="28"/><circle cx="-350" cy="160" r="22"/><circle cx="60" cy="360" r="26"/></g><path d="M-310 470c130-115 490-115 620 0" fill="none" stroke="#9bd6b8" stroke-width="42" stroke-linecap="round"/><path d="M-170 505l78 80 170-185" fill="none" stroke="#9bd6b8" stroke-width="42" stroke-linecap="round" stroke-linejoin="round"/></g><g opacity=".28" fill="#fff"><circle cx="160" cy="250" r="8"/><circle cx="920" cy="360" r="12"/><circle cx="170" cy="1510" r="10"/><circle cx="900" cy="1420" r="7"/></g></svg>