<svg xmlns="http://www.w3.org/2000/svg" viewBox="0 0 1080 1920" role="img" aria-labelledby="t d"><title id="t">Escalada no Estreito de Hormuz</title><desc id="d">Arte editorial vertical com mapa estilizado do Estreito de Hormuz, ilha de Larak, rotas marítimas e marcador de escalada.</desc><defs><linearGradient id="g" x1="0" y1="0" x2="0" y2="1"><stop offset="0" stop-color="#0f2235"/><stop offset="1" stop-color="#1c4861"/></linearGradient></defs><rect width="1080" height="1920" fill="url(#g)"/><path d="M0 500 C260 430 380 520 560 470 C760 415 870 335 1080 360 L1080 1210 C890 1250 730 1170 570 1230 C370 1300 210 1235 0 1305Z" fill="#1f6f8d" opacity=".78"/><path d="M0 0H1080V430 C850 410 720 490 550 530 C320 585 210 500 0 570Z" fill="#796b55"/><path d="M0 1340 C230 1260 390 1325 590 1280 C790 1235 920 1280 1080 1240V1920H0Z" fill="#b18b5c"/><ellipse cx="565" cy="905" rx="70" ry="115" fill="#c7b17f" transform="rotate(12 565 905)"/><circle cx="565" cy="905" r="145" fill="none" stroke="#ffcf66" stroke-width="14" opacity=".9"/><path d="M565 745V610" stroke="#ffcf66" stroke-width="18" stroke-linecap="round"/><path d="M565 610l-38 62h76z" fill="#ffcf66"/><path d="M160 980 C330 900 420 830 520 800" fill="none" stroke="#d7edf6" stroke-width="16" stroke-dasharray="26 24"/><path d="M630 1000 C760 1080 850 1110 980 1080" fill="none" stroke="#d7edf6" stroke-width="16" stroke-dasharray="26 24"/><g fill="#fff" font-family="Arial,Helvetica,sans-serif"><text x="80" y="175" font-size="70" font-weight="700">MUNDO · 30/08</text><text x="80" y="270" font-size="104" font-weight="800">LARAK</text><text x="80" y="355" font-size="48">Escalada no Estreito de Hormuz</text><text x="80" y="1510" font-size="50" font-weight="700">EUA atingem dois lançadores iranianos</text><text x="80" y="1580" font-size="42">Teerã anuncia retaliação; petróleo sobe</text><text x="80" y="1785" font-size="34" opacity=".8">ARTE EDITORIAL · NÃO É MAPA OPERACIONAL</text></g></svg>