<svg xmlns="http://www.w3.org/2000/svg" width="1080" height="1920" viewBox="0 0 1080 1920" role="img" aria-label="Ilustração vertical de um casal jantando sem celular">
  <defs>
    <linearGradient id="room" x1="0" y1="0" x2="0" y2="1">
      <stop offset="0" stop-color="#18243b"/>
      <stop offset=".48" stop-color="#53352e"/>
      <stop offset="1" stop-color="#0a0b10"/>
    </linearGradient>
    <radialGradient id="lamp" cx="50%" cy="50%" r="50%">
      <stop offset="0" stop-color="#ffd58e" stop-opacity=".95"/>
      <stop offset=".45" stop-color="#f7a862" stop-opacity=".42"/>
      <stop offset="1" stop-color="#f7a862" stop-opacity="0"/>
    </radialGradient>
    <linearGradient id="table" x1="0" y1="0" x2="1" y2="1">
      <stop offset="0" stop-color="#6a3f2c"/>
      <stop offset="1" stop-color="#2d1a18"/>
    </linearGradient>
    <filter id="blur"><feGaussianBlur stdDeviation="22"/></filter>
  </defs>
  <rect width="1080" height="1920" fill="url(#room)"/>
  <ellipse cx="540" cy="570" rx="420" ry="390" fill="url(#lamp)" filter="url(#blur)"/>
  <path d="M0 0 H1080 V460 C920 420 770 405 540 405 C305 405 145 425 0 475 Z" fill="#101725" opacity=".78"/>
  <g opacity=".22" fill="#ffd9a0">
    <circle cx="135" cy="690" r="8"/><circle cx="940" cy="690" r="8"/><circle cx="214" cy="526" r="5"/><circle cx="852" cy="520" r="5"/>
  </g>
  <g fill="#090a0f">
    <ellipse cx="282" cy="690" rx="106" ry="128" transform="rotate(-7 282 690)"/>
    <path d="M130 1125 C144 955 172 845 244 795 C314 747 398 775 443 842 C483 902 483 991 462 1125 Z"/>
    <ellipse cx="801" cy="684" rx="108" ry="130" transform="rotate(8 801 684)"/>
    <path d="M620 1125 C621 983 629 894 676 827 C717 768 797 741 868 778 C939 814 973 923 963 1125 Z"/>
  </g>
  <path d="M360 890 C420 928 467 944 525 942" fill="none" stroke="#090a0f" stroke-width="34" stroke-linecap="round"/>
  <path d="M715 890 C656 926 611 940 557 940" fill="none" stroke="#090a0f" stroke-width="34" stroke-linecap="round"/>
  <ellipse cx="540" cy="1188" rx="438" ry="168" fill="url(#table)"/>
  <ellipse cx="540" cy="1188" rx="438" ry="168" fill="none" stroke="#bd7650" stroke-opacity=".3" stroke-width="5"/>
  <g>
    <ellipse cx="342" cy="1135" rx="108" ry="47" fill="#e9ded1"/>
    <ellipse cx="738" cy="1135" rx="108" ry="47" fill="#e9ded1"/>
    <ellipse cx="342" cy="1135" rx="61" ry="24" fill="#c9864d"/>
    <ellipse cx="738" cy="1135" rx="61" ry="24" fill="#c9864d"/>
    <rect x="518" y="1010" width="44" height="118" rx="18" fill="#f5e3bd"/>
    <path d="M540 986 C514 1012 505 1042 540 1066 C575 1042 566 1012 540 986 Z" fill="#ffb55f"/>
    <ellipse cx="540" cy="1130" rx="47" ry="15" fill="#7c4b35"/>
  </g>
  <g transform="translate(748 1290) rotate(-8)">
    <rect width="168" height="92" rx="20" fill="#111823" stroke="#6b7484" stroke-width="5"/>
    <rect x="12" y="12" width="144" height="68" rx="13" fill="#1e2a3d"/>
    <circle cx="132" cy="46" r="8" fill="#7e8ca3"/>
  </g>
  <g transform="translate(164 1304) rotate(7)">
    <rect width="154" height="84" rx="19" fill="#111823" stroke="#6b7484" stroke-width="5"/>
    <rect x="12" y="12" width="130" height="60" rx="12" fill="#1e2a3d"/>
    <circle cx="121" cy="42" r="8" fill="#7e8ca3"/>
  </g>
  <path d="M0 1365 C260 1310 414 1355 540 1415 C684 1484 861 1418 1080 1360 L1080 1920 L0 1920 Z" fill="#07090d"/>
  <ellipse cx="540" cy="1510" rx="500" ry="240" fill="#000" opacity=".28" filter="url(#blur)"/>
</svg>